<svg xmlns="http://www.w3.org/2000/svg" width="980" height="430" viewBox="0 0 980 430"><rect width="980" height="430" fill="#fff"/><g font-family="Segoe UI, sans-serif" fill="#17232b" stroke="#52636a" stroke-width="1.2"><text x="18" y="28" stroke="none" font-size="18" font-weight="600" fill="#173f3b">CONNECT_IND / AUX_CONNECT_REQ · complete frame decomposition</text><rect x="18" y="48" width="120" height="50" fill="#f4d65e"/><rect x="138" y="48" width="170" height="50" fill="#efbc3c"/><rect x="308" y="48" width="535" height="50" fill="#63c4dd"/><rect x="843" y="48" width="119" height="50" fill="#b9d58e"/><text x="34" y="70" stroke="none">Preamble</text><text x="34" y="90" stroke="none">PHY dependent</text><text x="154" y="70" stroke="none">Access Address</text><text x="154" y="90" stroke="none">Advertising / train AA</text><text x="326" y="79" stroke="none">Advertising Physical Channel PDU</text><text x="862" y="70" stroke="none">CRC</text><text x="862" y="90" stroke="none">3 bytes</text><path d="M575 98v22H180v20m395-20h250v20" fill="none"/><rect x="100" y="140" width="180" height="55" fill="#7acbe0"/><rect x="280" y="140" width="625" height="55" fill="#d8e9e4" stroke="#176f65" stroke-width="2"/><text x="120" y="164" stroke="none">Advertising Header</text><text x="120" y="185" stroke="none">2 bytes</text><text x="300" y="173" stroke="none" font-weight="600">Payload · 34 bytes</text><path d="M590 195v20H125v20m465-20h0v20m0-20h320v20" fill="none"/><rect x="55" y="235" width="155" height="55" fill="#63c4dd"/><rect x="210" y="235" width="155" height="55" fill="#a9c6df"/><rect x="365" y="235" width="570" height="55" fill="#d8e9e4" stroke="#176f65" stroke-width="2"/><text x="75" y="260" stroke="none">InitA</text><text x="75" y="280" stroke="none">6 bytes</text><text x="230" y="260" stroke="none">AdvA</text><text x="230" y="280" stroke="none">6 bytes</text><text x="385" y="268" stroke="none" font-weight="600">LLData · 22 bytes</text><g font-size="12"><rect x="20" y="330" width="108" height="55" fill="#f4d65e"/><rect x="128" y="330" width="90" height="55" fill="#efbc3c"/><rect x="218" y="330" width="76" height="55" fill="#63c4dd"/><rect x="294" y="330" width="88" height="55" fill="#a9c6df"/><rect x="382" y="330" width="88" height="55" fill="#d8e9e4"/><rect x="470" y="330" width="80" height="55" fill="#f4d65e"/><rect x="550" y="330" width="88" height="55" fill="#efbc3c"/><rect x="638" y="330" width="130" height="55" fill="#63c4dd"/><rect x="768" y="330" width="100" height="55" fill="#a9c6df"/><text x="28" y="352" stroke="none">Access Address</text><text x="64" y="376" stroke="none">4 B</text><text x="146" y="352" stroke="none">CRCInit</text><text x="164" y="376" stroke="none">3 B</text><text x="228" y="352" stroke="none">WinSize</text><text x="250" y="376" stroke="none">1 B</text><text x="304" y="352" stroke="none">WinOffset</text><text x="332" y="376" stroke="none">2 B</text><text x="400" y="352" stroke="none">Interval</text><text x="425" y="376" stroke="none">2 B</text><text x="483" y="352" stroke="none">Latency</text><text x="505" y="376" stroke="none">2 B</text><text x="562" y="352" stroke="none">Timeout</text><text x="588" y="376" stroke="none">2 B</text><text x="657" y="352" stroke="none">Channel Map</text><text x="699" y="376" stroke="none">5 B</text><text x="783" y="352" stroke="none">Hop / SCA</text><text x="808" y="376" stroke="none">1 B</text></g><text x="18" y="414" stroke="none" font-size="13" fill="#52636a">Same 34-byte initiating payload; CONNECT_IND uses primary advertising, AUX_CONNECT_REQ uses secondary or periodic context.</text></g></svg>