<svg xmlns="http://www.w3.org/2000/svg" width="980" height="300" viewBox="0 0 980 300">
  <rect width="980" height="300" fill="#fff"/>
  <g font-family="Segoe UI, sans-serif" fill="#17232b" stroke="#52636a" stroke-width="1.2">
    <text x="18" y="28" stroke="none" font-size="18" font-weight="600" fill="#173f3b">Data Physical Channel packet · after connection creation</text>
    <rect x="18" y="52" width="120" height="52" fill="#f4d65e"/><rect x="138" y="52" width="190" height="52" fill="#a9c6df"/><rect x="328" y="52" width="510" height="52" fill="#63c4dd"/><rect x="838" y="52" width="124" height="52" fill="#b9d58e"/>
    <text x="35" y="75" stroke="none">Preamble</text><text x="35" y="95" stroke="none">PHY dependent</text><text x="158" y="75" stroke="none">Connection Access Address</text><text x="158" y="95" stroke="none">4 bytes · from LLData</text><text x="350" y="84" stroke="none">Data Physical Channel PDU</text><text x="860" y="75" stroke="none">CRC</text><text x="860" y="95" stroke="none">3 bytes</text>
    <path d="M585 104v22H180v20m405-20h255v20" fill="none"/>
    <rect x="95" y="146" width="210" height="58" fill="#7acbe0"/><rect x="305" y="146" width="575" height="58" fill="#d8e9e4" stroke="#176f65" stroke-width="2"/>
    <text x="115" y="171" stroke="none">Data Header</text><text x="115" y="192" stroke="none">LLID · NESN · SN · MD · Length</text><text x="325" y="171" stroke="none" font-weight="600">Payload</text><text x="325" y="192" stroke="none">LL Data / LL Control / L2CAP data</text>
    <rect x="180" y="238" width="600" height="36" fill="#edf4f2" stroke="#176f65"/><text x="214" y="261" stroke="none" font-size="14" fill="#145c55">Connection events use this channel for parameter update control PDUs</text>
  </g>
</svg>